<?xml version="1.0" encoding="UTF-8" standalone="no"?>
<!-- Created with Inkscape (http://www.inkscape.org/) -->

<svg
   xmlns:dc="http://purl.org/dc/elements/1.1/"
   xmlns:cc="http://creativecommons.org/ns#"
   xmlns:rdf="http://www.w3.org/1999/02/22-rdf-syntax-ns#"
   xmlns:svg="http://www.w3.org/2000/svg"
   xmlns="http://www.w3.org/2000/svg"
   xmlns:sodipodi="http://sodipodi.sourceforge.net/DTD/sodipodi-0.dtd"
   xmlns:inkscape="http://www.inkscape.org/namespaces/inkscape"
   id="svg3886"
   version="1.1"
   inkscape:version="0.91 r13725"
   xml:space="preserve"
   width="146.19"
   height="146.19"
   viewBox="0 0 146.19 146.19"
   sodipodi:docname="logotype.svg"><metadata
     id="metadata3892"><rdf:RDF><cc:Work
         rdf:about=""><dc:format>image/svg+xml</dc:format><dc:type
           rdf:resource="http://purl.org/dc/dcmitype/StillImage" /><dc:title></dc:title></cc:Work></rdf:RDF></metadata><defs
     id="defs3890"><clipPath
       clipPathUnits="userSpaceOnUse"
       id="clipPath3900"><path
         d="m 0,0 116.952,0 0,116.952 L 0,116.952 0,0 Z"
         id="path3902"
         inkscape:connector-curvature="0" /></clipPath><clipPath
       clipPathUnits="userSpaceOnUse"
       id="clipPath3928"><path
         d="m 0,0 116.952,0 0,116.952 L 0,116.952 0,0 Z"
         id="path3930"
         inkscape:connector-curvature="0" /></clipPath><clipPath
       clipPathUnits="userSpaceOnUse"
       id="clipPath3968"><path
         d="m 0,0 116.952,0 0,116.952 L 0,116.952 0,0 Z"
         id="path3970"
         inkscape:connector-curvature="0" /></clipPath><clipPath
       clipPathUnits="userSpaceOnUse"
       id="clipPath3984"><path
         d="m 0,116.952 116.952,0 L 116.952,0 0,0 0,116.952 Z"
         id="path3986"
         inkscape:connector-curvature="0" /></clipPath></defs><sodipodi:namedview
     pagecolor="#ffffff"
     bordercolor="#666666"
     borderopacity="1"
     objecttolerance="10"
     gridtolerance="10"
     guidetolerance="10"
     inkscape:pageopacity="0"
     inkscape:pageshadow="2"
     inkscape:window-width="720"
     inkscape:window-height="480"
     id="namedview3888"
     showgrid="false"
     inkscape:zoom="1.6143375"
     inkscape:cx="73.095001"
     inkscape:cy="73.095001"
     inkscape:window-x="62"
     inkscape:window-y="76"
     inkscape:window-maximized="0"
     inkscape:current-layer="g3894" /><g
     id="g3894"
     inkscape:groupmode="layer"
     inkscape:label="FEFI Logo Kopie"
     transform="matrix(1.25,0,0,-1.25,0,146.19)"><g
       id="g3896"><g
         id="g3898"
         clip-path="url(#clipPath3900)"><g
           id="g3904"
           transform="translate(116.2172,58.4758)"><path
             d="m 0,0 c 0,-31.889 -25.852,-57.741 -57.741,-57.741 -31.89,0 -57.742,25.852 -57.742,57.741 0,31.889 25.852,57.741 57.742,57.741 C -25.852,57.741 0,31.889 0,0"
             style="fill:#ffffff;fill-opacity:1;fill-rule:nonzero;stroke:none"
             id="path3906"
             inkscape:connector-curvature="0" /></g><g
           id="g3908"
           transform="translate(58.4761,115.4828)"><path
             d="m 0,0 c -31.434,0 -57.007,-25.573 -57.007,-57.007 0,-31.433 25.573,-57.007 57.007,-57.007 31.434,0 57.007,25.574 57.007,57.007 C 57.007,-25.573 31.434,0 0,0 m 0,-115.482 c -32.244,0 -58.476,26.232 -58.476,58.475 0,32.243 26.232,58.476 58.476,58.476 32.244,0 58.476,-26.233 58.476,-58.476 0,-32.243 -26.232,-58.475 -58.476,-58.475"
             style="fill:#231f20;fill-opacity:1;fill-rule:nonzero;stroke:none"
             id="path3910"
             inkscape:connector-curvature="0" /></g><g
           id="g3912"
           transform="translate(26.8858,77.0013)"><path
             d="M 0,0 C 6.373,10.827 18.143,18.113 31.589,18.113 45.036,18.113 56.807,10.827 63.18,0 l 1.642,0 C 58.316,11.644 45.876,19.523 31.589,19.523 17.304,19.523 4.864,11.644 -1.642,0 L 0,0 Z"
             style="fill:#231f20;fill-opacity:1;fill-rule:nonzero;stroke:none"
             id="path3914"
             inkscape:connector-curvature="0" /></g><g
           id="g3916"
           transform="translate(90.0657,39.2472)"><path
             d="m 0,0 c -6.373,-10.827 -18.143,-18.113 -31.589,-18.113 -13.447,0 -25.218,7.286 -31.591,18.113 l -1.642,0 c 6.506,-11.644 18.946,-19.523 33.233,-19.523 14.285,0 26.725,7.879 33.231,19.523 L 0,0 Z"
             style="fill:#231f20;fill-opacity:1;fill-rule:nonzero;stroke:none"
             id="path3918"
             inkscape:connector-curvature="0" /></g></g></g><path
       d="m 101.174,43.687 -85.397,0 0,1.41 85.397,0 0,-1.41 z"
       style="fill:#231f20;fill-opacity:1;fill-rule:nonzero;stroke:none"
       id="path3920"
       inkscape:connector-curvature="0" /><path
       d="m 101.174,71.855 -85.397,0 0,1.41 85.397,0 0,-1.41 z"
       style="fill:#231f20;fill-opacity:1;fill-rule:nonzero;stroke:none"
       id="path3922"
       inkscape:connector-curvature="0" /><g
       id="g3924"><g
         id="g3926"
         clip-path="url(#clipPath3928)"><g
           id="g3932"
           transform="translate(58.4761,79.6901)"><path
             d="M 0,0 C 0,0 2.354,2.207 2.354,4.93 2.354,7.653 0,9.86 0,9.86 0,9.86 -2.353,7.653 -2.353,4.93 -2.353,2.207 0,0 0,0"
             style="fill:#231f20;fill-opacity:1;fill-rule:nonzero;stroke:none"
             id="path3934"
             inkscape:connector-curvature="0" /></g><g
           id="g3936"
           transform="translate(59.4846,79.3549)"><path
             d="M 0,0 C 0,0 2.207,-2.354 4.93,-2.354 7.653,-2.354 9.86,0 9.86,0 9.86,0 7.653,2.352 4.93,2.352 2.207,2.352 0,0 0,0"
             style="fill:#231f20;fill-opacity:1;fill-rule:nonzero;stroke:none"
             id="path3938"
             inkscape:connector-curvature="0" /></g><g
           id="g3940"
           transform="translate(52.538,77.0013)"><path
             d="m 0,0 c 2.723,0 4.93,2.354 4.93,2.354 0,0 -2.207,2.352 -4.93,2.352 -2.723,0 -4.93,-2.352 -4.93,-2.352 C -4.93,2.354 -2.723,0 0,0"
             style="fill:#231f20;fill-opacity:1;fill-rule:nonzero;stroke:none"
             id="path3942"
             inkscape:connector-curvature="0" /></g></g></g><g
       id="g3944"
       transform="translate(64.2974,25.5693)"><path
         d="M 0,0 0.196,2.984 -2.572,4.115 0.326,4.851 0.548,7.833 2.143,5.304 5.047,6.015 3.135,3.716 4.709,1.174 1.932,2.282 0,0 Z"
         style="fill:#231f20;fill-opacity:1;fill-rule:nonzero;stroke:none"
         id="path3946"
         inkscape:connector-curvature="0" /></g><g
       id="g3948"
       transform="translate(79.9332,31.7795)"><path
         d="M 0,0 -0.936,2.84 -3.926,2.852 -1.515,4.62 -2.426,7.468 0,5.72 2.426,7.468 1.515,4.62 3.926,2.852 0.936,2.84 0,0 Z"
         style="fill:#231f20;fill-opacity:1;fill-rule:nonzero;stroke:none"
         id="path3950"
         inkscape:connector-curvature="0" /></g><g
       id="g3952"
       transform="translate(52.6548,25.4842)"><path
         d="M 0,0 -0.196,2.984 2.572,4.115 -0.326,4.851 -0.548,7.833 -2.143,5.304 -5.047,6.015 -3.135,3.716 -4.709,1.174 -1.932,2.282 0,0 Z"
         style="fill:#231f20;fill-opacity:1;fill-rule:nonzero;stroke:none"
         id="path3954"
         inkscape:connector-curvature="0" /></g><g
       id="g3956"
       transform="translate(37.1095,31.7795)"><path
         d="M 0,0 0.936,2.84 3.926,2.852 1.515,4.62 2.426,7.468 0,5.72 -2.426,7.468 -1.515,4.62 -3.926,2.852 -0.936,2.84 0,0 Z"
         style="fill:#231f20;fill-opacity:1;fill-rule:nonzero;stroke:none"
         id="path3958"
         inkscape:connector-curvature="0" /></g><g
       id="g3960"
       transform="translate(34.2906,64.5704)"><path
         d="m 0,0 8.488,0 0.707,3.998 -13.009,0 -3.598,-20.482 4.521,0 1.384,7.996 7.842,0 0.708,3.967 -7.843,0 L 0,0 Z m 9.933,-16.484 12.886,0 0.677,3.998 -8.365,0 0.83,4.613 7.719,0 0.708,3.967 -7.72,0 0.677,3.906 8.365,0 0.708,3.998 -12.886,0 -3.599,-20.482 z M 35.244,0 l 8.488,0 0.707,3.998 -13.009,0 -3.598,-20.482 4.521,0 1.384,7.996 7.842,0 0.708,3.967 -7.843,0 0.8,4.521 z m 10.087,-16.484 4.521,0 3.598,20.482 -4.521,0 -3.598,-20.482 z"
         style="fill:#231f20;fill-opacity:1;fill-rule:nonzero;stroke:none"
         id="path3962"
         inkscape:connector-curvature="0" /></g><g
       id="g3964"><g
         id="g3966"
         clip-path="url(#clipPath3968)"><g
           id="g3972"
           transform="translate(20.0577,34.4056)"><path
             d="M 0,0 1.874,1.07 C 2.4,1.37 2.685,2.006 2.146,2.971 L 1.298,4.489 -2.6,2.263 -1.752,0.746 C -1.213,-0.219 -0.521,-0.297 0,0 M -0.253,1.019 C -0.557,0.845 -0.786,0.854 -1.033,1.296 l -0.296,0.53 2.342,1.337 0.296,-0.53 C 1.556,2.191 1.445,1.988 1.141,1.815 L -0.253,1.019 Z m 1.63,-5.137 0.731,0.518 -1.033,1.49 0.798,0.565 0.953,-1.374 0.731,0.518 -0.953,1.374 0.672,0.476 1.033,-1.491 0.731,0.518 -1.608,2.32 -3.664,-2.593 1.609,-2.321 z m 4.212,-4.91 0.651,0.616 -1.212,1.302 2.611,2.468 -0.689,0.74 -3.261,-3.084 1.9,-2.042 z m 5.74,0.794 -1.008,0.895 -3.964,-2.484 0.787,-0.698 0.755,0.502 1.125,-0.998 -0.393,-0.823 0.787,-0.698 1.911,4.304 z m -1.087,-0.225 -0.849,-1.761 -0.771,0.685 1.62,1.076 z m 2.75,-6.664 0.936,1.466 1.441,-0.9 0.481,0.755 -1.441,0.9 0.516,0.807 1.561,-0.974 0.482,0.755 -2.418,1.509 -2.415,-3.783 0.857,-0.535 z m 7.098,-0.351 c 0.309,0.606 0.201,1.434 -0.934,1.998 -1.135,0.564 -1.871,0.156 -2.18,-0.451 l -0.851,-1.67 c -0.308,-0.607 -0.201,-1.435 0.934,-1.999 1.135,-0.564 1.871,-0.156 2.18,0.451 l 0.851,1.671 z m -1.716,-1.143 c -0.159,-0.313 -0.456,-0.406 -0.909,-0.181 -0.453,0.225 -0.554,0.517 -0.395,0.829 l 0.771,1.514 c 0.159,0.313 0.456,0.406 0.909,0.181 0.453,-0.225 0.554,-0.516 0.395,-0.829 l -0.771,-1.514 z m 3.973,-3.252 1.121,-0.426 -0.466,1.821 c 0.489,0.016 0.812,0.296 1.012,0.819 l 0.197,0.517 c 0.301,0.786 0.077,1.333 -0.944,1.721 l -1.745,0.663 -1.601,-4.193 0.944,-0.359 0.498,1.304 0.555,-0.211 0.429,-1.656 z m 0.759,2.667 c -0.121,-0.315 -0.277,-0.421 -0.68,-0.268 l -0.751,0.285 0.472,1.235 0.75,-0.285 c 0.385,-0.146 0.457,-0.318 0.336,-0.633 l -0.127,-0.334 z m 3.29,-3.379 0.878,-0.214 1.228,1.67 -0.545,-2.434 0.949,-0.231 0.914,4.397 -0.981,0.239 -1.747,-2.515 -0.35,3.027 -0.981,0.239 -1.281,-4.307 0.949,-0.232 0.675,2.402 0.292,-2.041 z m 6.812,2.64 -0.402,-3.061 c -0.047,-0.361 -0.248,-0.544 -0.749,-0.474 -0.501,0.07 -0.648,0.302 -0.6,0.662 l 0.402,3.061 -1,0.14 -0.415,-3.154 c -0.089,-0.675 0.241,-1.421 1.496,-1.597 1.255,-0.176 1.766,0.453 1.854,1.128 l 0.415,3.155 -1.001,0.14 z m 4.716,-4.822 0.031,0.896 -1.779,0.067 0.123,3.591 -1.01,0.038 -0.152,-4.486 2.787,-0.106 z m 4.084,0.149 -0.051,0.894 -1.809,-0.114 -0.056,0.976 1.669,0.106 -0.051,0.894 -1.668,-0.106 -0.047,0.822 1.81,0.115 -0.051,0.894 -2.817,-0.178 0.253,-4.482 2.818,0.179 z m 4.731,0.614 -0.807,4.415 -0.992,-0.19 0.807,-4.415 0.992,0.19 z m 3.943,0.902 1.203,0.325 -1.183,4.33 -0.929,-0.252 0.815,-2.984 -2.241,2.599 -1.196,-0.324 1.183,-4.33 0.929,0.252 -0.778,2.847 2.197,-2.463 z m 4.324,6.227 -0.97,-0.368 0.414,-3.664 -2.191,2.988 -0.97,-0.369 2.821,-3.729 1.349,0.513 -0.453,4.629 z m 3.622,-3.221 -1.966,4.036 -0.905,-0.45 1.966,-4.035 0.905,0.449 z m 2.326,5.383 -0.45,0.775 -2.946,-1.742 0.449,-0.775 1.039,0.614 1.803,-3.107 0.87,0.514 -1.804,3.107 1.039,0.614 z m 1.861,2.354 -1.09,-0.794 1.496,-4.465 0.85,0.62 -0.312,0.857 1.214,0.886 0.704,-0.571 0.85,0.619 -3.712,2.848 z m -0.029,-1.122 1.503,-1.231 -0.833,-0.608 -0.67,1.839 z m 4.374,3.514 -0.586,0.677 -2.561,-2.273 0.587,-0.677 0.902,0.801 2.353,-2.715 0.755,0.67 -2.352,2.716 0.902,0.801 z m 4.003,-1.123 -3.188,3.16 -0.706,-0.723 3.188,-3.16 0.706,0.723 z m 0.899,5.772 c -0.521,0.438 -1.356,0.525 -2.174,-0.443 -0.818,-0.968 -0.592,-1.774 -0.071,-2.212 l 1.435,-1.207 c 0.521,-0.438 1.356,-0.524 2.174,0.444 0.819,0.967 0.592,1.774 0.071,2.212 l -1.435,1.206 z m 0.716,-1.921 c 0.268,-0.226 0.29,-0.535 -0.037,-0.921 -0.327,-0.386 -0.636,-0.417 -0.904,-0.192 l -1.3,1.094 c -0.269,0.225 -0.29,0.534 0.037,0.921 0.326,0.386 0.635,0.417 0.903,0.191 l 1.301,-1.093 z m 3.974,2.993 0.685,1.041 -3.728,2.5 -0.529,-0.805 2.569,-1.723 -3.381,0.49 -0.682,-1.036 3.728,-2.5 0.529,0.805 -2.451,1.644 3.26,-0.416 z M 78.58,3.314 C 77.803,3.735 77.566,3.795 76.72,2.874 76.226,2.337 76.21,2.322 75.831,2.528 75.54,2.685 75.518,2.812 75.739,3.207 75.937,3.56 76.133,3.829 76.46,4.234 L 75.763,4.727 C 75.425,4.343 75.16,3.951 74.969,3.609 74.367,2.533 74.526,2.086 75.314,1.659 c 0.853,-0.463 1.122,-0.425 1.859,0.409 0.501,0.565 0.552,0.56 0.908,0.367 0.332,-0.18 0.371,-0.316 0.118,-0.77 C 77.972,1.259 77.691,0.936 77.378,0.639 l 0.605,-0.52 c 0.341,0.252 0.708,0.674 0.961,1.127 0.661,1.182 0.418,1.644 -0.364,2.068"
             style="fill:#231f20;fill-opacity:1;fill-rule:nonzero;stroke:none"
             id="path3974"
             inkscape:connector-curvature="0" /></g><g
           id="g3976"
           transform="translate(22.1243,78.3751)"><path
             d="M 0,0 -1.571,0.871 -0.715,2.403 -1.523,2.852 -2.379,1.32 -3.245,1.8 -2.317,3.459 -3.126,3.908 -4.563,1.338 -0.509,-0.911 0,0 Z M 3.202,5.137 2.443,5.667 1.376,4.128 0.548,4.706 1.532,6.125 0.774,6.655 -0.21,5.236 -0.907,5.723 0.16,7.262 -0.598,7.792 -2.26,5.396 1.54,2.74 3.202,5.137 Z m -4.943,1.509 c 0.055,0.446 0.08,0.726 0.076,1.136 L -2.358,7.808 C -2.341,7.465 -2.355,7.067 -2.373,6.663 L -1.741,6.646 Z M 5.28,9.554 3.603,11.022 C 3.132,11.434 2.416,11.497 1.658,10.643 L 0.466,9.3 3.955,6.247 5.146,7.59 c 0.758,0.854 0.6,1.556 0.134,1.964 M 4.373,8.961 C 4.645,8.723 4.714,8.496 4.367,8.105 L 3.951,7.636 1.855,9.471 2.271,9.94 c 0.347,0.391 0.582,0.352 0.855,0.113 L 4.373,8.961 Z M 9.218,11.739 8.592,12.42 7.221,11.144 6.538,11.888 7.802,13.065 7.176,13.746 5.912,12.57 5.338,13.196 6.708,14.472 6.083,15.154 3.948,13.167 7.083,9.752 9.218,11.739 Z m -4.496,2.54 c 0.15,0.424 0.234,0.692 0.319,1.094 L 4.37,15.548 C 4.313,15.209 4.214,14.822 4.11,14.431 l 0.612,-0.152 z m 7.612,-0.064 1,0.73 -1.839,0.623 c 0.262,0.432 0.201,0.87 -0.139,1.337 l -0.336,0.462 c -0.512,0.703 -1.111,0.817 -2.022,0.152 l -1.558,-1.136 2.728,-3.747 0.843,0.614 -0.848,1.165 0.496,0.362 1.675,-0.562 z m -1.882,2.159 c 0.205,-0.281 0.209,-0.476 -0.151,-0.739 l -0.67,-0.489 -0.804,1.104 0.67,0.489 c 0.343,0.25 0.532,0.215 0.737,-0.066 l 0.218,-0.299 z m 3.649,4.461 -1.216,-0.68 1.042,-4.728 0.948,0.529 -0.226,0.911 1.355,0.758 0.663,-0.666 0.948,0.53 -3.514,3.346 z m -0.157,-1.141 1.415,-1.434 -0.93,-0.52 -0.485,1.954 z m 5.747,2.813 -0.365,0.851 -3.239,-1.418 0.365,-0.85 1.141,0.5 1.464,-3.41 0.956,0.418 -1.464,3.41 1.142,0.499 z m 3.652,-2.629 -1.452,4.402 -0.992,-0.322 1.451,-4.403 0.993,0.323 z m 4.178,4.513 c -0.157,0.686 -0.793,1.28 -2.072,1.002 -1.279,-0.278 -1.595,-1.08 -1.437,-1.766 l 0.432,-1.887 c 0.158,-0.685 0.794,-1.28 2.072,-1.001 1.279,0.278 1.595,1.08 1.438,1.765 l -0.433,1.887 z m -0.607,-2.02 c 0.081,-0.353 -0.094,-0.62 -0.604,-0.731 -0.511,-0.111 -0.785,0.058 -0.866,0.41 l -0.393,1.711 c -0.081,0.353 0.094,0.619 0.605,0.73 0.51,0.111 0.785,-0.057 0.866,-0.41 l 0.392,-1.71 z m 5.056,-0.62 1.279,0.146 -0.486,4.61 -0.988,-0.113 0.335,-3.177 -1.851,3.004 -1.272,-0.145 0.486,-4.611 0.989,0.113 -0.32,3.032 1.828,-2.859 z m 7.981,0.085 0.063,0.923 -1.869,0.118 0.069,1.008 1.723,-0.109 0.062,0.923 -1.723,0.109 0.058,0.848 1.869,-0.118 0.063,0.923 -2.91,0.184 -0.315,-4.625 2.91,-0.184 z m 4.527,4.062 -0.567,-3.138 c -0.067,-0.37 -0.283,-0.548 -0.796,-0.45 -0.513,0.098 -0.653,0.345 -0.586,0.715 l 0.567,3.138 -1.025,0.196 -0.584,-3.234 c -0.125,-0.691 0.178,-1.479 1.463,-1.725 1.286,-0.246 1.843,0.376 1.968,1.068 l 0.585,3.234 -1.025,0.196 z m 4.09,-5.763 1.187,-0.353 -0.611,1.838 c 0.504,0.053 0.818,0.366 0.986,0.919 l 0.167,0.546 c 0.254,0.832 -0.016,1.377 -1.097,1.698 l -1.848,0.55 -1.353,-4.434 1,-0.297 0.421,1.378 0.587,-0.175 0.561,-1.67 z m 0.593,2.801 c -0.102,-0.333 -0.256,-0.454 -0.683,-0.327 l -0.794,0.236 0.398,1.306 0.795,-0.236 c 0.407,-0.122 0.493,-0.293 0.392,-0.626 l -0.108,-0.353 z m 5.992,-1.829 c 0.282,0.644 0.124,1.495 -1.075,2.02 -1.2,0.524 -1.933,0.064 -2.216,-0.58 l -0.777,-1.773 c -0.283,-0.644 -0.124,-1.495 1.075,-2.02 1.199,-0.525 1.933,-0.064 2.215,0.58 l 0.778,1.773 z m -1.698,-1.272 c -0.145,-0.331 -0.445,-0.443 -0.924,-0.234 -0.478,0.21 -0.599,0.506 -0.454,0.837 l 0.705,1.608 c 0.145,0.331 0.445,0.443 0.924,0.234 0.479,-0.21 0.6,-0.506 0.454,-0.837 l -0.705,-1.608 z m 5.898,-1.661 0.305,0.524 c 0.437,0.752 0.302,1.349 -0.669,1.923 l -1.629,0.963 -2.333,-4.006 0.898,-0.531 0.708,1.215 0.683,-0.404 c 0.971,-0.574 1.599,-0.436 2.037,0.316 m -0.846,0.621 c -0.168,-0.289 -0.34,-0.389 -0.736,-0.155 l -0.683,0.404 0.704,1.21 0.684,-0.404 c 0.378,-0.224 0.403,-0.416 0.234,-0.705 l -0.203,-0.35 z m 2.837,-5.292 0.549,0.745 -1.513,1.104 0.6,0.813 1.395,-1.018 0.549,0.745 -1.395,1.017 0.504,0.685 1.513,-1.104 0.549,0.745 -2.356,1.718 -2.751,-3.731 2.356,-1.719 z m 1.634,4.901 c 0.444,-0.066 0.723,-0.097 1.134,-0.104 l 0.043,0.692 c -0.343,-0.008 -0.741,0.015 -1.145,0.043 l -0.032,-0.631 z m 1.614,-7.696 0.624,0.683 -1.371,1.276 0.682,0.746 1.263,-1.176 0.624,0.683 -1.264,1.177 0.573,0.628 1.371,-1.276 0.624,0.683 -2.135,1.987 -3.125,-3.424 2.134,-1.987 z m 2.633,-2.744 0.854,-0.963 3.497,3.044 -0.661,0.744 -2.409,-2.098 1.397,3.239 -0.85,0.957 -3.496,-3.044 0.66,-0.744 2.299,2.002 -1.291,-3.137 z m 3.123,-4.048 0.708,-1.075 3.848,2.585 -0.547,0.831 -2.652,-1.782 1.813,3.056 -0.704,1.069 -3.848,-2.585 0.547,-0.831 2.531,1.7 -1.696,-2.968 z m 2.874,-4.931 0.816,0.437 -0.874,1.656 0.891,0.476 0.805,-1.527 0.816,0.437 -0.806,1.527 0.75,0.401 0.874,-1.657 0.816,0.437 -1.361,2.579 -4.088,-2.187 1.361,-2.579 z"
             style="fill:#231f20;fill-opacity:1;fill-rule:nonzero;stroke:none"
             id="path3978"
             inkscape:connector-curvature="0" /></g></g></g><g
       id="g3980"><g
         id="g3982"
         clip-path="url(#clipPath3984)"><g
           id="g3988"
           transform="translate(58.4757,108.8417)"><path
             d="m 0,0 c 27.772,0 50.366,-22.594 50.366,-50.366 0,-27.772 -22.594,-50.366 -50.366,-50.366 -27.771,0 -50.365,22.594 -50.365,50.366 C -50.365,-22.594 -27.771,0 0,0 m 0,4.934 c -30.541,0 -55.3,-24.759 -55.3,-55.3 0,-30.541 24.759,-55.3 55.3,-55.3 30.541,0 55.3,24.759 55.3,55.3 0,30.541 -24.759,55.3 -55.3,55.3"
             style="fill:#231f20;fill-opacity:1;fill-rule:nonzero;stroke:none"
             id="path3990"
             inkscape:connector-curvature="0" /></g></g></g></g></svg>